<?xml version="1.0" standalone="no"?>
<!DOCTYPE svg PUBLIC "-//W3C//DTD SVG 20010904//EN"
 "http://www.w3.org/TR/2001/REC-SVG-20010904/DTD/svg10.dtd">
<svg version="1.0" xmlns="http://www.w3.org/2000/svg"
 width="231.000000pt" height="183.000000pt" viewBox="0 0 231.000000 183.000000"
 preserveAspectRatio="xMidYMid meet">

<g transform="translate(0.000000,183.000000) scale(0.100000,-0.100000)"
fill="#ffffff" stroke="none">
<path d="M850 1780 c-253 -110 -434 -239 -566 -404 -174 -216 -239 -406 -238
-701 0 -168 17 -245 77 -360 46 -87 184 -222 267 -262 118 -57 238 -64 372
-23 79 24 135 59 190 118 85 91 122 203 116 353 -3 74 -8 94 -38 154 -47 92
-118 163 -205 205 -62 30 -79 34 -145 33 -72 -1 -106 -10 -237 -64 -24 -10
-35 -10 -46 -1 -55 46 -1 325 95 486 84 142 259 295 414 363 l64 27 0 63 c0
35 -1 63 -2 63 -2 0 -55 -23 -118 -50z"/>
<path d="M2110 1786 c-204 -92 -313 -156 -436 -258 -146 -120 -274 -298 -329
-457 -49 -139 -58 -204 -58 -391 0 -162 2 -181 26 -255 33 -100 109 -217 185
-285 31 -28 94 -69 138 -92 70 -34 93 -41 165 -45 145 -9 274 35 370 124 95
89 133 187 134 343 0 99 -2 109 -33 172 -112 229 -328 306 -556 198 -32 -16
-65 -26 -72 -23 -8 3 -19 23 -25 44 -26 87 30 313 111 450 85 143 261 297 418
365 l62 27 0 63 c0 35 -1 64 -2 63 -2 0 -46 -19 -98 -43z"/>
</g>
</svg>
